<svg id="playlist-square-button" xmlns="http://www.w3.org/2000/svg" xmlns:xlink="http://www.w3.org/1999/xlink" viewBox="387 51 48 48">
  <defs>
    <style>
      .cls-1 {
        fill: url(#linear-gradient);
      }

      .cls-2 {
        fill: #fff;
      }
    </style>
    <linearGradient id="linear-gradient" x2="0" y2="1" gradientUnits="objectBoundingBox">
      <stop offset="0" stop-color="#6c41ec"/>
      <stop offset="1" stop-color="#e01de6"/>
    </linearGradient>
  </defs>
  <g id="Group_2" data-name="Group 2" transform="translate(387 51)">
    <g id="Group_1" data-name="Group 1" transform="translate(0)">
      <path id="Path_3" data-name="Path 3" class="cls-1" d="M166.521,80.012V71.3a1.482,1.482,0,0,0-2.085-1.354l-12.4,5.524a1.478,1.478,0,0,0-.874,1.269c0-.028-.005.272-.005.272V93.953a5.971,5.971,0,0,0-2.766-.658,7.844,7.844,0,0,0-5.458,2.379c-2.84,2.84-3.174,7.127-.746,9.556a5.731,5.731,0,0,0,4.1,1.633,7.845,7.845,0,0,0,5.458-2.378,7.954,7.954,0,0,0,2.345-4.785c.027-.272.034-.833.034-.848V86.486l11.522-5.12A1.483,1.483,0,0,0,166.521,80.012ZM151.135,99.4a4.986,4.986,0,0,1-1.491,2.983,4.868,4.868,0,0,1-3.361,1.51,2.784,2.784,0,0,1-2-.764c-1.273-1.273-.938-3.679.746-5.363a4.868,4.868,0,0,1,3.361-1.51,2.783,2.783,0,0,1,2,.764A2.878,2.878,0,0,1,151.135,99.4Zm12.421-20.355-9.437,4.193v-5.46l9.438-4.2Z" transform="translate(-129.537 -64.338)"/>
      <path id="Path_4" data-name="Path 4" class="cls-1" d="M43.457,0H4.545A4.55,4.55,0,0,0,0,4.544V43.456A4.55,4.55,0,0,0,4.545,48H43.457A4.55,4.55,0,0,0,48,43.456V4.544A4.55,4.55,0,0,0,43.457,0Zm1.579,43.456a1.581,1.581,0,0,1-1.579,1.58H4.545a1.581,1.581,0,0,1-1.58-1.58V4.544a1.581,1.581,0,0,1,1.58-1.58H43.457a1.581,1.581,0,0,1,1.579,1.58V43.456Z" transform="translate(-0.001)"/>
      <path id="Path_5" data-name="Path 5" class="cls-2" d="M79.633,117.266h6.62a1.482,1.482,0,1,0,0-2.965h-6.62a1.482,1.482,0,1,0,0,2.965Z" transform="translate(-72.022 -105.336)"/>
      <path id="Path_6" data-name="Path 6" class="cls-2" d="M87.735,205.907a1.483,1.483,0,0,0-1.482-1.482h-6.62a1.482,1.482,0,1,0,0,2.965h6.62A1.482,1.482,0,0,0,87.735,205.907Z" transform="translate(-72.022 -188.392)"/>
      <path id="Path_7" data-name="Path 7" class="cls-2" d="M419.749,369.772h-6.62a1.482,1.482,0,1,0,0,2.965h6.62a1.482,1.482,0,0,0,0-2.965Z" transform="translate(-379.361 -340.77)"/>
      <path id="Path_8" data-name="Path 8" class="cls-2" d="M419.749,459.9h-6.62a1.482,1.482,0,1,0,0,2.965h6.62a1.482,1.482,0,0,0,0-2.965Z" transform="translate(-379.361 -423.827)"/>
    </g>
  </g>
</svg>
